{"title":"Season of Miracles 2013 BRRip 720p x264 AAC - PRiSTiNE [P2PDL]","uid":9138378,"size":539918883,"categoryP":"video","categoryS":"hd___movies","magnet":"?xt=urn:btih:6b42c878f510587e81386ea37f2a9a86e37146be&amp;dn=Season+of+Miracles+2013+BRRip+720p+x264+AAC+-+PRiSTiNE+%5BP2PDL%5D&amp;tr=udp%3A%2F%2Ftracker.openbittorrent.com%3A80&amp;tr=udp%3A%2F%2Fopen.demonii.com%3A1337&amp;tr=udp%3A%2F%2Ftracker.coppersurfer.tk%3A6969&amp;tr=udp%3A%2F%2Fexodus.desync.com%3A6969","seeders":1,"leechers":0,"uploader":"ValidusVyto","files":-1,"time":1383461127,"description":"_______ Visit us at our Semi Public Bittorrent Community ________\n  &lt;a href=&quot;\nhttp://p2pdl.com&quot; rel=&quot;nofollow&quot; target=&quot;_NEW&quot;&gt;\nhttp://p2pdl.com&lt;/a&gt;  _____________________________ &lt;a href=&quot; http://p2pdl.com&quot; rel=&quot;nofollow&quot; target=&quot;_NEW&quot;&gt; http://p2pdl.com&lt;/a&gt;\n\n\n\nSeason of Miracles 2013 BRRip 720p x264 AAC - PRiSTiNE\n\n\nGenre: Comedy | Drama | Family \nPlot: Junkie is a pitch black comeBased on the award-winning novel by Rusty Whitener,\nSeason of Miracles follows the Robins, an underdog Little League team through their 1974\nseason with newcomer and autistic baseball ... \nDirector: Rusty Whitener.\nStars: John Schneider, Grayson Russell, Andrew Wilson.\nRated: N/a\n\n\nIMDb: &lt;a href=&quot;\nhttp://www.imdb.com/title/tt2173768/&quot; rel=&quot;nofollow&quot; target=&quot;_NEW&quot;&gt;\nhttp://www.imdb.com/title/tt2173768/&lt;/a&gt;\n\n\nFormat                         : MPEG-4\nFile size                      : 501 MiB\nDuration                       : 1h 19mn\nOverall bit rate               : 880 Kbps\n\nVideo\nFormat                         : AVC\nBit rate                       : 807 Kbps\nWidth                          : 1 280 pixels\nHeight                         : 672 pixels\nFrame rate mode                : Constant\nFrame rate                     : 23.976 fps\nBit depth                      : 10 bits\nStream size                    : 460 MiB (92%)\nWriting library                : x264 core 138 r2358\n\nAudio\nFormat                         : AAC\nBit rate mode                  : Variable\nBit rate                       : 69.6 Kbps\nChannel count                  : 2 channels\nChannel positions              : Front: L R\nSampling rate                  : 48.0 KHz\nStream size                    : 39.6 MiB (8%)\nLanguage                       : English\n\nSubtitle                       : N/a\n\nSource                         : 720p.bluray.x264-brmp\n &lt;a href=&quot;\nhttp://someimage.com/GKzY9DB&quot; rel=&quot;nofollow&quot; target=&quot;_NEW&quot;&gt;\nhttp://someimage.com/GKzY9DB&lt;/a&gt; &lt;a href=&quot;\nhttp://someimage.com/Z3XqttZ&quot; rel=&quot;nofollow&quot; target=&quot;_NEW&quot;&gt;\nhttp://someimage.com/Z3XqttZ&lt;/a&gt; &lt;a href=&quot;\nhttp://someimage.com/tLsDbSG&quot; rel=&quot;nofollow&quot; target=&quot;_NEW&quot;&gt;\nhttp://someimage.com/tLsDbSG&lt;/a&gt; &lt;a href=&quot;\nhttp://someimage.com/hjzkczy&quot; rel=&quot;nofollow&quot; target=&quot;_NEW&quot;&gt;\nhttp://someimage.com/hjzkczy&lt;/a&gt; &lt;a href=&quot;\nhttp://someimage.com/h9zNJZC&quot; rel=&quot;nofollow&quot; target=&quot;_NEW&quot;&gt;\nhttp://someimage.com/h9zNJZC&lt;/a&gt; &lt;a href=&quot;\nhttp://someimage.com/Jt3zmRP&quot; rel=&quot;nofollow&quot; target=&quot;_NEW&quot;&gt;\nhttp://someimage.com/Jt3zmRP&lt;/a&gt;\n\n\n----------------------------------------------------------------------------------------------------\n\n\nEncoded using revolutionary 10bit encoding, which enables us to provide you more crispier \nand sharper images at small sizes, just make sure you follow our instructions without a fault.\nRecommend to you to use latest version of VLC player. Install K-Lite Codec Pack or shark007 codecs\nin case of any kind of problem in playback (For non-VLC Media Player users). Alternatively, install\nCore AVC codecs, the fastest decoder that there is coupled with Community Center Codec Pack and play\non Windows Media Player Classic. Check sample to be sure.\nEnjoy!\n\nEncoder Notes:Looking For Early Access To Anything You Can Provide DVDScr, R5, DVDR, BluRay, Direct\nAudio, Music Releases and Seedboxes. We require dedicated servers, so as to do more \nand fast releases of movies.\nIf You Got anything to offer please contact us at &quot;&lt;a class=&quot;__cf_email__&quot; href=&quot;/cdn-cgi/l/email-protection&quot; data-cfemail=&quot;bececcd9fed6cbcdd690ddd1d3&quot;&gt;[email&amp;#160;protected]&lt;/a&gt;&lt;script cf-hash='f9e31' type=&quot;text/javascript&quot;&gt;\n/* &lt;![CDATA[ */!function(){try{var t=&quot;currentScript&quot;in document?document.currentScript:function(){for(var t=document.getElementsByTagName(&quot;script&quot;),e=t.length;e--;)if(t[e].getAttribute(&quot;cf-hash&quot;))return t[e]}();if(t&amp;&amp;t.previousSibling){var e,r,n,i,c=t.previousSibling,a=c.getAttribute(&quot;data-cfemail&quot;);if(a){for(e=&quot;&quot;,r=parseInt(a.substr(0,2),16),n=2;a.length-n;n+=2)i=parseInt(a.substr(n,2),16)^r,e+=String.fromCharCode(i);e=document.createTextNode(e),c.parentNode.replaceChild(e,c)}}}catch(u){}}();/* ]]&gt; */&lt;/script&gt;&quot;.\n\nFor more of our team uploads visit @                                             &lt;a href=&quot; http://thepiratebay.se/user/vitamin_x&quot; rel=&quot;nofollow&quot; target=&quot;_NEW&quot;&gt; http://thepiratebay.se/user/vitamin_x&lt;/a&gt;\t\t","torrent":{"xt":"urn:btih:6b42c878f510587e81386ea37f2a9a86e37146be","amp;dn":"Season+of+Miracles+2013+BRRip+720p+x264+AAC+-+PRiSTiNE+%5BP2PDL%5D","amp;tr":["udp%3A%2F%2Ftracker.openbittorrent.com%3A80","udp%3A%2F%2Fopen.demonii.com%3A1337","udp%3A%2F%2Ftracker.coppersurfer.tk%3A6969","udp%3A%2F%2Fexodus.desync.com%3A6969"],"infoHash":"6b42c878f510587e81386ea37f2a9a86e37146be","infoHashBuffer":{"type":"Buffer","data":[107,66,200,120,245,16,88,126,129,56,110,163,127,42,154,134,227,113,70,190]},"announce":[],"urlList":[]}}